<svg version="1.1" xmlns="http://www.w3.org/2000/svg" xmlns:xlink="http://www.w3.org/1999/xlink" width="26.01469" height="47.97651" viewBox="0,0,26.01469,47.97651"><defs><linearGradient x1="240.00006" y1="156.01174" x2="240.00006" y2="203.98825" gradientUnits="userSpaceOnUse" id="color-1"><stop offset="0" stop-color="#18aa9b"/><stop offset="1" stop-color="#0d4086"/></linearGradient></defs><g transform="translate(-226.99272,-156.01174)"><g data-paper-data="{&quot;isPaintingLayer&quot;:true}" fill="url(#color-1)" fill-rule="nonzero" stroke="none" stroke-width="0.5" stroke-linecap="butt" stroke-linejoin="miter" stroke-miterlimit="10" stroke-dasharray="" stroke-dashoffset="0" style="mix-blend-mode: normal"><path d="M227.96798,196.94916c1.40017,-4.90066 6.03479,-2.79099 6.03479,-2.79099l0.05013,0.00847c15.38111,-3.18152 -5.89802,-15.29034 -6.90691,-23.92596c-1.85429,-15.87228 13.53724,-16.88629 23.47601,-10.7172c0,0 4.24075,2.82717 1.41357,7.06792c-2.82717,4.24076 -7.06792,1.41359 -7.06792,1.41359c-1.59085,-1.19908 -5.96202,-4.14405 -8.28673,-1.68336c-2.36846,2.507 7.72738,11.44734 8.67049,12.55274c9.66989,11.33401 4.10704,21.05666 -8.57031,25.11388l-5.31268,-0.73828c0,0 -4.90066,-1.40017 -3.50047,-6.30082z" data-paper-data="{&quot;index&quot;:null}"/></g></g></svg>